<?xml version="1.0" encoding="UTF-8" standalone="no"?>
<svg
   xmlns:dc="http://purl.org/dc/elements/1.1/"
   xmlns:cc="http://creativecommons.org/ns#"
   xmlns:rdf="http://www.w3.org/1999/02/22-rdf-syntax-ns#"
   xmlns:svg="http://www.w3.org/2000/svg"
   xmlns="http://www.w3.org/2000/svg"
   xmlns:xlink="http://www.w3.org/1999/xlink"
   xmlns:sodipodi="http://sodipodi.sourceforge.net/DTD/sodipodi-0.dtd"
   xmlns:inkscape="http://www.inkscape.org/namespaces/inkscape"
   version="1.1"
   x="0px"
   y="0px"
   viewBox="0 0 100 100"
   enable-background="new 0 0 100 100"
   xml:space="preserve"
   id="svg3853"
   sodipodi:docname="logo.svg"
   inkscape:version="0.92.4 (unknown)"
   width="100"
   height="100"
   inkscape:export-filename="/home/andrei/Dev/incompat/app/images/icon-128.png"
   inkscape:export-xdpi="122.88"
   inkscape:export-ydpi="122.88"><metadata
     id="metadata3859"><rdf:RDF><cc:Work
         rdf:about=""><dc:format>image/svg+xml</dc:format><dc:type
           rdf:resource="http://purl.org/dc/dcmitype/StillImage" /><dc:title /></cc:Work></rdf:RDF></metadata><defs
     id="defs3857"><linearGradient
       id="linearGradient4583"
       inkscape:collect="always"><stop
         id="stop4594"
         offset="0"
         style="stop-color:#363959;stop-opacity:1;" /><stop
         id="stop4596"
         offset="1"
         style="stop-color:#091b26;stop-opacity:1" /></linearGradient><linearGradient
       inkscape:collect="always"
       id="linearGradient4583-6"><stop
         style="stop-color:#abd0e6;stop-opacity:0.98755187"
         offset="0"
         id="stop4579" /><stop
         style="stop-color:#81b9d9;stop-opacity:1"
         offset="1"
         id="stop4581" /></linearGradient><linearGradient
       inkscape:collect="always"
       id="linearGradient992-3"><stop
         style="stop-color:#4296c7;stop-opacity:1"
         offset="0"
         id="stop988" /><stop
         style="stop-color:#abd0e6;stop-opacity:1"
         offset="1"
         id="stop990" /></linearGradient><linearGradient
       id="linearGradient865"><stop
         style="stop-color:#003eaa;stop-opacity:1"
         offset="0"
         id="stop863" /><stop
         style="stop-color:#000f40;stop-opacity:1"
         offset="1"
         id="stop861" /></linearGradient><linearGradient
       id="linearGradient991"><stop
         style="stop-color:#00feff;stop-opacity:1"
         offset="0"
         id="stop987" /><stop
         style="stop-color:#00c8d7;stop-opacity:0.99481863"
         offset="1"
         id="stop989" /></linearGradient><linearGradient
       inkscape:collect="always"
       xlink:href="#linearGradient4583-6"
       id="linearGradient4585"
       x1="-38.628959"
       y1="97.601213"
       x2="177.85943"
       y2="97.601213"
       gradientUnits="userSpaceOnUse" /><radialGradient
       inkscape:collect="always"
       xlink:href="#linearGradient4583"
       id="radialGradient4587"
       cx="50.088135"
       cy="75.132195"
       fx="50.088135"
       fy="75.132195"
       r="49.781559"
       gradientTransform="matrix(-0.01563051,-1.0103222,0.99840535,-0.01544616,-24.141345,126.89784)"
       gradientUnits="userSpaceOnUse" /><linearGradient
       inkscape:collect="always"
       xlink:href="#linearGradient992-3"
       id="linearGradient4599"
       x1="50.581123"
       y1="124.37855"
       x2="49.310024"
       y2="24.836769"
       gradientUnits="userSpaceOnUse" /></defs><sodipodi:namedview
     pagecolor="#ffffff"
     bordercolor="#666666"
     borderopacity="1"
     objecttolerance="10"
     gridtolerance="10"
     guidetolerance="10"
     inkscape:pageopacity="0"
     inkscape:pageshadow="2"
     inkscape:window-width="1920"
     inkscape:window-height="1019"
     id="namedview3855"
     showgrid="false"
     inkscape:zoom="6.808"
     inkscape:cx="47.524746"
     inkscape:cy="42.739469"
     inkscape:window-x="0"
     inkscape:window-y="0"
     inkscape:window-maximized="1"
     inkscape:current-layer="layer1"><inkscape:grid
       type="xygrid"
       id="grid4577" /></sodipodi:namedview><rect
     style="fill:#000000;fill-opacity:0"
     id="rect4666"
     width="90.04113"
     height="71.386604"
     x="0.29377204"
     y="-24.412457" /><g
     inkscape:groupmode="layer"
     id="layer1"
     inkscape:label="bg"
     transform="translate(0,-25)"><ellipse
       style="opacity:0.93699999;fill:url(#radialGradient4587);fill-opacity:1;stroke:url(#linearGradient4599);stroke-width:3.392;stroke-miterlimit:4;stroke-dasharray:none;stroke-opacity:1"
       id="path864"
       cx="50.088135"
       cy="75.132195"
       rx="48.08556"
       ry="48.012123"
       inkscape:export-xdpi="123.6188"
       inkscape:export-ydpi="123.6188" /></g><g
     inkscape:groupmode="layer"
     id="layer2"
     inkscape:label="fg"
     transform="translate(0,-25)"
     style="opacity:1"><g
       id="g862"
       transform="matrix(0.88918615,0,0,0.85804461,230.11515,-32.451527)"
       style="fill:#363959;fill-opacity:1"><g
         id="g840"
         transform="translate(-32.755582,21.151586)"
         style="fill:#363959;fill-opacity:1" /></g><g
       transform="matrix(0.2674827,0.28648813,-0.28648813,0.2674827,58.875654,27.685337)"
       id="g4549"
       style="fill:url(#linearGradient4585);fill-opacity:1;stroke:none;stroke-opacity:1"><g
         transform="matrix(1.1671751,0,0,1.1671751,-2.698194,-78.008307)"
         id="g4547"
         style="fill:url(#linearGradient4585);fill-opacity:1;stroke:none;stroke-opacity:1"><path
           inkscape:connector-curvature="0"
           d="m 85.024397,113.7829 c -2.030023,1.9e-4 -3.675883,1.64558 -3.676088,3.67561 v 26.23789 c 5.538038,4.25624 12.710194,-2.81843 15.352566,-2.81843 5.290215,0 9.578445,4.28868 9.578445,9.5789 0,5.29022 -4.28823,9.57891 -9.578445,9.57891 -2.642225,0 -10.181065,-7.07357 -15.352566,-2.81891 v 26.23837 c 2.05e-4,2.03002 1.646065,3.67541 3.676088,3.67561 h 26.237893 c 4.25575,-5.538 -2.81844,-12.70977 -2.81844,-15.3521 0,-5.29022 4.28822,-9.57891 9.57844,-9.57891 5.29022,0 9.57891,4.28869 9.57891,9.57891 0,2.64213 -7.07313,10.18062 -2.8194,15.3521 h 26.23885 c 2.03002,-2e-4 3.67541,-1.64559 3.67561,-3.67561 v -26.23789 c -5.53799,-4.25575 -12.70976,2.81843 -15.35209,2.81843 -5.29021,0 -9.57845,-4.28869 -9.57845,-9.57891 0,-5.29022 4.28824,-9.5789 9.57845,-9.5789 2.64213,0 10.18061,7.07315 15.35209,2.81938 v -26.23884 c -2e-4,-2.03003 -1.64559,-3.67542 -3.67561,-3.67561 h -26.2379 c -4.25575,5.538 2.81845,12.70976 2.81845,15.35209 0,5.29022 -4.28869,9.57892 -9.57891,9.57892 -5.29022,0 -9.57844,-4.2887 -9.57844,-9.57892 0,-2.64214 7.07317,-10.18061 2.8194,-15.35209 z"
           style="color:#000000;font-style:normal;font-variant:normal;font-weight:normal;font-stretch:normal;font-size:medium;line-height:normal;font-family:sans-serif;font-variant-ligatures:normal;font-variant-position:normal;font-variant-caps:normal;font-variant-numeric:normal;font-variant-alternates:normal;font-feature-settings:normal;text-indent:0;text-align:start;text-decoration:none;text-decoration-line:none;text-decoration-style:solid;text-decoration-color:#000000;letter-spacing:normal;word-spacing:normal;text-transform:none;writing-mode:lr-tb;direction:ltr;text-orientation:mixed;dominant-baseline:auto;baseline-shift:baseline;text-anchor:start;white-space:normal;shape-padding:0;clip-rule:nonzero;display:inline;overflow:visible;visibility:visible;opacity:1;isolation:auto;mix-blend-mode:normal;color-interpolation:sRGB;color-interpolation-filters:linearRGB;solid-color:#000000;solid-opacity:1;vector-effect:none;fill:url(#linearGradient4585);fill-opacity:1;fill-rule:evenodd;stroke:none;stroke-width:7.35167503;stroke-linecap:butt;stroke-linejoin:round;stroke-miterlimit:4;stroke-dasharray:none;stroke-dashoffset:0;stroke-opacity:1;color-rendering:auto;image-rendering:auto;shape-rendering:auto;text-rendering:auto;enable-background:accumulate"
           id="path4543" /><path
           inkscape:connector-curvature="0"
           d="m 26.395271,93.277654 -11.523276,9.786316 c 0,0 4.431145,11.04997 5.021671,14.03303 H -3.6211424 c -1.846581,1.8e-4 -3.343709,1.49688 -3.343893,3.34346 v 23.5148 c -2.982916,-0.59049 -14.0325976,-5.02166 -14.0325976,-5.02166 l -9.78675,11.52328 9.78675,11.52283 c 0,0 11.0496826,-4.43117 14.0325976,-5.02166 v 23.5148 c 1.84e-4,1.84658 1.497312,3.34371 3.343893,3.34389 H 19.893666 c -0.590495,2.98292 -5.021671,14.0326 -5.021671,14.0326 l 11.523276,9.78676 11.522844,-9.78676 c 0,0 -4.431178,-11.04968 -5.02167,-14.0326 h 23.514808 c 1.84658,-1.8e-4 3.343709,-1.49731 3.343893,-3.34389 v -23.5148 c 2.982915,0.59049 14.032598,5.02166 14.032598,5.02166 l 9.786749,-11.52283 -9.786749,-11.52328 c 0,0 -11.049683,4.43117 -14.032598,5.02166 v -23.5148 c -1.84e-4,-1.84658 -1.497313,-3.34328 -3.343893,-3.34346 H 32.896445 c 0.590524,-2.98306 5.02167,-14.03303 5.02167,-14.03303 z"
           style="color:#000000;font-style:normal;font-variant:normal;font-weight:normal;font-stretch:normal;font-size:medium;line-height:normal;font-family:sans-serif;font-variant-ligatures:normal;font-variant-position:normal;font-variant-caps:normal;font-variant-numeric:normal;font-variant-alternates:normal;font-feature-settings:normal;text-indent:0;text-align:start;text-decoration:none;text-decoration-line:none;text-decoration-style:solid;text-decoration-color:#000000;letter-spacing:normal;word-spacing:normal;text-transform:none;writing-mode:lr-tb;direction:ltr;text-orientation:mixed;dominant-baseline:auto;baseline-shift:baseline;text-anchor:start;white-space:normal;shape-padding:0;clip-rule:nonzero;display:inline;overflow:visible;visibility:visible;opacity:1;isolation:auto;mix-blend-mode:normal;color-interpolation:sRGB;color-interpolation-filters:linearRGB;solid-color:#000000;solid-opacity:1;vector-effect:none;fill:url(#linearGradient4585);fill-opacity:1;fill-rule:evenodd;stroke:none;stroke-width:6.68732929;stroke-linecap:butt;stroke-linejoin:round;stroke-miterlimit:4;stroke-dasharray:none;stroke-dashoffset:0;stroke-opacity:1;color-rendering:auto;image-rendering:auto;shape-rendering:auto;text-rendering:auto;enable-background:accumulate"
           id="path4545" /></g></g></g></svg>