<svg xmlns:dc="http://purl.org/dc/elements/1.1/" xmlns:cc="http://creativecommons.org/ns#" xmlns:rdf="http://www.w3.org/1999/02/22-rdf-syntax-ns#" xmlns:svg="http://www.w3.org/2000/svg" xmlns="http://www.w3.org/2000/svg" xmlns:sodipodi="http://sodipodi.sourceforge.net/DTD/sodipodi-0.dtd" xmlns:inkscape="http://www.inkscape.org/namespaces/inkscape" viewBox="0 0 250 312.5" version="1.1" x="0px" y="0px"><g transform="translate(55.384763,27.398781)"><g transform="matrix(1.1671751,0,0,1.1671751,-2.698194,-78.008307)"><path d="m 85.024397,113.7829 c -2.030023,1.9e-4 -3.675883,1.64558 -3.676088,3.67561 v 26.23789 c 5.538038,4.25624 12.710194,-2.81843 15.352566,-2.81843 5.290215,0 9.578445,4.28868 9.578445,9.5789 0,5.29022 -4.28823,9.57891 -9.578445,9.57891 -2.642225,0 -10.181065,-7.07357 -15.352566,-2.81891 v 26.23837 c 2.05e-4,2.03002 1.646065,3.67541 3.676088,3.67561 h 26.237893 c 4.25575,-5.538 -2.81844,-12.70977 -2.81844,-15.3521 0,-5.29022 4.28822,-9.57891 9.57844,-9.57891 5.29022,0 9.57891,4.28869 9.57891,9.57891 0,2.64213 -7.07313,10.18062 -2.8194,15.3521 h 26.23885 c 2.03002,-2e-4 3.67541,-1.64559 3.67561,-3.67561 v -26.23789 c -5.53799,-4.25575 -12.70976,2.81843 -15.35209,2.81843 -5.29021,0 -9.57845,-4.28869 -9.57845,-9.57891 0,-5.29022 4.28824,-9.5789 9.57845,-9.5789 2.64213,0 10.18061,7.07315 15.35209,2.81938 v -26.23884 c -2e-4,-2.03003 -1.64559,-3.67542 -3.67561,-3.67561 h -26.2379 c -4.25575,5.538 2.81845,12.70976 2.81845,15.35209 0,5.29022 -4.28869,9.57892 -9.57891,9.57892 -5.29022,0 -9.57844,-4.2887 -9.57844,-9.57892 0,-2.64214 7.07317,-10.18061 2.8194,-15.35209 z" style="color:#000000;font-style:normal;font-variant:normal;font-weight:normal;font-stretch:normal;font-size:medium;line-height:normal;font-family:sans-serif;font-variant-ligatures:normal;font-variant-position:normal;font-variant-caps:normal;font-variant-numeric:normal;font-variant-alternates:normal;font-feature-settings:normal;text-indent:0;text-align:start;text-decoration:none;text-decoration-line:none;text-decoration-style:solid;text-decoration-color:#000000;letter-spacing:normal;word-spacing:normal;text-transform:none;writing-mode:lr-tb;direction:ltr;text-orientation:mixed;dominant-baseline:auto;baseline-shift:baseline;text-anchor:start;white-space:normal;shape-padding:0;clip-rule:nonzero;display:inline;overflow:visible;visibility:visible;opacity:1;isolation:auto;mix-blend-mode:normal;color-interpolation:sRGB;color-interpolation-filters:linearRGB;solid-color:#000000;solid-opacity:1;vector-effect:none;fill:#000000;fill-opacity:1;fill-rule:evenodd;stroke:none;stroke-width:7.35167503;stroke-linecap:butt;stroke-linejoin:round;stroke-miterlimit:4;stroke-dasharray:none;stroke-dashoffset:0;stroke-opacity:1;color-rendering:auto;image-rendering:auto;shape-rendering:auto;text-rendering:auto;enable-background:accumulate"/><path d="m 26.395271,93.277654 -11.523276,9.786316 c 0,0 4.431145,11.04997 5.021671,14.03303 H -3.6211424 c -1.846581,1.8e-4 -3.343709,1.49688 -3.343893,3.34346 v 23.5148 c -2.982916,-0.59049 -14.0325976,-5.02166 -14.0325976,-5.02166 l -9.78675,11.52328 9.78675,11.52283 c 0,0 11.0496826,-4.43117 14.0325976,-5.02166 v 23.5148 c 1.84e-4,1.84658 1.497312,3.34371 3.343893,3.34389 H 19.893666 c -0.590495,2.98292 -5.021671,14.0326 -5.021671,14.0326 l 11.523276,9.78676 11.522844,-9.78676 c 0,0 -4.431178,-11.04968 -5.02167,-14.0326 h 23.514808 c 1.84658,-1.8e-4 3.343709,-1.49731 3.343893,-3.34389 v -23.5148 c 2.982915,0.59049 14.032598,5.02166 14.032598,5.02166 l 9.786749,-11.52283 -9.786749,-11.52328 c 0,0 -11.049683,4.43117 -14.032598,5.02166 v -23.5148 c -1.84e-4,-1.84658 -1.497313,-3.34328 -3.343893,-3.34346 H 32.896445 c 0.590524,-2.98306 5.02167,-14.03303 5.02167,-14.03303 z" style="color:#000000;font-style:normal;font-variant:normal;font-weight:normal;font-stretch:normal;font-size:medium;line-height:normal;font-family:sans-serif;font-variant-ligatures:normal;font-variant-position:normal;font-variant-caps:normal;font-variant-numeric:normal;font-variant-alternates:normal;font-feature-settings:normal;text-indent:0;text-align:start;text-decoration:none;text-decoration-line:none;text-decoration-style:solid;text-decoration-color:#000000;letter-spacing:normal;word-spacing:normal;text-transform:none;writing-mode:lr-tb;direction:ltr;text-orientation:mixed;dominant-baseline:auto;baseline-shift:baseline;text-anchor:start;white-space:normal;shape-padding:0;clip-rule:nonzero;display:inline;overflow:visible;visibility:visible;opacity:1;isolation:auto;mix-blend-mode:normal;color-interpolation:sRGB;color-interpolation-filters:linearRGB;solid-color:#000000;solid-opacity:1;vector-effect:none;fill:#000000;fill-opacity:1;fill-rule:evenodd;stroke:none;stroke-width:6.68732929;stroke-linecap:butt;stroke-linejoin:round;stroke-miterlimit:4;stroke-dasharray:none;stroke-dashoffset:0;stroke-opacity:1;color-rendering:auto;image-rendering:auto;shape-rendering:auto;text-rendering:auto;enable-background:accumulate"/></g></g><text x="0" y="265" fill="#000000" font-size="5px" font-weight="bold" font-family="'Helvetica Neue', Helvetica, Arial-Unicode, Arial, Sans-serif">Created by Razmik Badalyan</text><text x="0" y="270" fill="#000000" font-size="5px" font-weight="bold" font-family="'Helvetica Neue', Helvetica, Arial-Unicode, Arial, Sans-serif">from the Noun Project</text></svg>